<?xml version="1.0" standalone="no"?><!DOCTYPE svg PUBLIC "-//W3C//DTD SVG 1.1//EN" "http://www.w3.org/Graphics/SVG/1.1/DTD/svg11.dtd"><svg t="1664699981270" class="icon" viewBox="0 0 1024 1024" version="1.1" xmlns="http://www.w3.org/2000/svg" p-id="4922" xmlns:xlink="http://www.w3.org/1999/xlink" width="200" height="200"><path d="M1004.544 759.808c10.922667 20.48 17.237333 38.912 18.944 55.296 1.706667 16.384-0.682667 30.549333-7.168 42.496-6.485333 11.946667-16.213333 21.162667-29.184 27.648a99.498667 99.498667 0 0 1-45.056 9.728h-111.616V441.344c19.797333 35.498667 39.594667 71.68 59.392 108.544 17.066667 31.402667 35.669333 65.877333 55.808 103.424 20.138667 37.546667 39.765333 73.045333 58.88 106.496zM117.76 894.976c-9.557333 0-19.626667-3.072-30.208-9.216a64.554667 64.554667 0 0 1-25.088-27.136c-6.144-11.946667-9.045333-26.624-8.704-44.032 0.341333-17.408 6.656-37.034667 18.944-58.88 18.432-34.133333 37.888-69.802667 58.368-107.008l57.344-103.936c20.48-37.546667 40.618667-74.069333 60.416-109.568v459.776H117.76zM679.936 124.928l83.968 181.248v588.8H318.464V416.768l99.328 209.92 262.144-501.76z" fill="#0095FF" p-id="4923"></path></svg>